<svg width="47" height="43" viewBox="0 0 47 43" fill="none" xmlns="http://www.w3.org/2000/svg">
<path d="M18.1146 39.4167L17.3312 33.6833C16.9069 33.534 16.5071 33.3549 16.1317 33.1458C15.7564 32.9368 15.3892 32.7129 15.0302 32.474L9.20414 34.7136L3.81873 26.2031L8.86143 22.7094C8.8288 22.5004 8.81248 22.2988 8.81248 22.1047V20.8953C8.81248 20.7012 8.8288 20.4997 8.86143 20.2906L3.81873 16.7969L9.20414 8.28647L15.0302 10.5261C15.3892 10.2872 15.7646 10.0632 16.1562 9.85418C16.5479 9.64515 16.9396 9.46598 17.3312 9.31668L18.1146 3.58334H28.8854L29.6687 9.31668C30.093 9.46598 30.4929 9.64515 30.8682 9.85418C31.2436 10.0632 31.6107 10.2872 31.9698 10.5261L37.7958 8.28647L43.1812 16.7969L38.1385 20.2906C38.1712 20.4997 38.1875 20.7012 38.1875 20.8953V22.1047C38.1875 22.2988 38.1548 22.5004 38.0896 22.7094L43.1323 26.2031L37.7469 34.7136L31.9698 32.474C31.6107 32.7129 31.2354 32.9368 30.8437 33.1458C30.4521 33.3549 30.0604 33.534 29.6687 33.6833L28.8854 39.4167H18.1146ZM21.5416 35.8333H25.4094L26.0948 31.0854C27.1066 30.8465 28.0449 30.4957 28.9099 30.0328C29.7748 29.57 30.5663 29.0101 31.2844 28.3531L36.1312 30.1896L38.0406 27.1438L33.8302 24.2323C33.9934 23.8142 34.1076 23.3738 34.1729 22.9109C34.2382 22.4481 34.2708 21.9778 34.2708 21.5C34.2708 21.0222 34.2382 20.5519 34.1729 20.0891C34.1076 19.6262 33.9934 19.1858 33.8302 18.7677L38.0406 15.8563L36.1312 12.8104L31.2844 14.6917C30.5663 14.0049 29.7748 13.43 28.9099 12.9672C28.0449 12.5044 27.1066 12.1535 26.0948 11.9146L25.4583 7.16668H21.5906L20.9052 11.9146C19.8934 12.1535 18.955 12.5044 18.0901 12.9672C17.2252 13.43 16.4337 13.9899 15.7156 14.6469L10.8687 12.8104L8.95935 15.8563L13.1698 18.7229C13.0066 19.1708 12.8923 19.6188 12.8271 20.0667C12.7618 20.5146 12.7291 20.9924 12.7291 21.5C12.7291 21.9778 12.7618 22.4406 12.8271 22.8886C12.8923 23.3365 13.0066 23.7844 13.1698 24.2323L8.95935 27.1438L10.8687 30.1896L15.7156 28.3083C16.4337 28.9951 17.2252 29.57 18.0901 30.0328C18.955 30.4957 19.8934 30.8465 20.9052 31.0854L21.5416 35.8333ZM23.5979 27.7708C25.4909 27.7708 27.1066 27.1587 28.4448 25.9344C29.783 24.7101 30.4521 23.232 30.4521 21.5C30.4521 19.7681 29.783 18.2899 28.4448 17.0656C27.1066 15.8413 25.4909 15.2292 23.5979 15.2292C21.6722 15.2292 20.0484 15.8413 18.7265 17.0656C17.4047 18.2899 16.7437 19.7681 16.7437 21.5C16.7437 23.232 17.4047 24.7101 18.7265 25.9344C20.0484 27.1587 21.6722 27.7708 23.5979 27.7708Z" fill="#D9D9D9"/>
</svg>
